<?xml version="1.0" encoding="UTF-8"?>
<svg xmlns="http://www.w3.org/2000/svg" version="1.1" viewBox="0 0 512 512">
  <defs>
    <style>
      .cls-1 {
        fill: #fff;
        fill-rule: evenodd;
      }
    </style>
  </defs>
  <!-- Generator: Adobe Illustrator 28.7.1, SVG Export Plug-In . SVG Version: 1.2.0 Build 142)  -->
  <g>
    <g id="_Слой_1" data-name="Слой_1">
      <g>
        <path class="cls-1" d="M96,162.7v253.3c0,12.7,5.1,24.9,14.1,33.9,9,9,21.2,14.1,33.9,14.1h176c8.8,0,16-7.2,16-16s-7.2-16-16-16h-176c-8.8,0-16-7.1-16-15.9,0,0,0,0,0,0v-253.3c0-8.8-7.2-16-16-16s-16,7.2-16,16Z"/>
        <path class="cls-1" d="M432.1,157.3c0-12.8-5.1-25-14.1-34l-61.4-61.3c-9-9-21.2-14-33.9-14h-114.8c-12.7,0-24.9,5.1-33.9,14.1-9,9-14.1,21.2-14.1,33.9v256c0,12.7,5.1,24.9,14.1,33.9,9,9,21.2,14.1,33.9,14.1h176c26.5,0,48-21.5,48-48v-194.7ZM400.1,157.3v194.7c0,8.8-7.3,16-16.1,16h-176c-8.8,0-16-7.1-16-15.9,0,0,0,0,0,0V96c0-8.8,7.1-16,15.9-16,0,0,0,0,0,0h114.8c4.2,0,8.3,1.7,11.3,4.7l61.3,61.3c3,3,4.7,7.1,4.7,11.3h0Z"/>
      </g>
    </g>
  </g>
</svg>