<svg xmlns="http://www.w3.org/2000/svg" version="1.1" xmlns:xlink="http://www.w3.org/1999/xlink" width="512" height="512" x="0" y="0" viewBox="0 0 24 24" style="enable-background:new 0 0 512 512" xml:space="preserve" class=""><g><path d="M11 17.25H5c-1.577 0-2.25-.673-2.25-2.25V9.75h16.5V10a.75.75 0 0 0 1.5 0V7A3.383 3.383 0 0 0 17 3.25H5A3.383 3.383 0 0 0 1.25 7v8A3.383 3.383 0 0 0 5 18.75h6a.75.75 0 0 0 0-1.5zM5 4.75h12c1.577 0 2.25.673 2.25 2.25v1.25H2.75V7c0-1.577.673-2.25 2.25-2.25zm4 8.5a.75.75 0 0 1 0 1.5H6a.75.75 0 0 1 0-1.5zm9-1A4.75 4.75 0 1 0 22.75 17 4.756 4.756 0 0 0 18 12.25zm0 8A3.25 3.25 0 1 1 21.25 17 3.254 3.254 0 0 1 18 20.25zm1.78-4.614a.75.75 0 0 1 0 1.061l-1.666 1.667a.752.752 0 0 1-1.061 0l-.833-.834a.75.75 0 0 1 1.06-1.06l.3.3 1.137-1.137a.749.749 0 0 1 1.063.003z" fill="#FFFFFF" opacity="1" data-original="#000000" class=""></path></g></svg>