<svg xmlns="http://www.w3.org/2000/svg" version="1.1" xmlns:xlink="http://www.w3.org/1999/xlink" width="512" height="512" x="0" y="0" viewBox="0 0 32 32" style="enable-background:new 0 0 512 512" xml:space="preserve" class=""><g><path d="M26.555 15.168 24 13.465l.707-.758a1 1 0 0 0 .188-1.154l-1-2a1.001 1.001 0 0 0-.34-.385l-3-2A1.001 1.001 0 0 0 20 7h-3a1 1 0 0 0-.894.553L15.382 9H14a1 1 0 0 0-.707.293l-1 1a1 1 0 0 0-.188 1.154l.678 1.356-.197.197h-1.35l-3.789-1.895a1 1 0 0 0-1.396 1.211l1 3c.015.045.033.089.054.131l1 2c.097.194.254.35.448.448l1.855.927.885.885A1 1 0 0 0 12 20h.586l.707.707A1 1 0 0 0 14 21h.382l.401.803-.49.49A1 1 0 0 0 14 23v1a1 1 0 0 0 .757.97l4 1a.998.998 0 0 0 .559-.021l3-1a1 1 0 0 0 .516-.394l2-3c.023-.035.044-.07.063-.108l1-2c.02-.042.039-.086.054-.13l1-3a1 1 0 0 0-.394-1.149zm-2.481 3.448-.94 1.881-1.776 2.663-2.399.8-2.803-.702.552-.551a1 1 0 0 0 .187-1.154l-1-2A1 1 0 0 0 15 19h-.586l-.707-.707A1 1 0 0 0 13 18h-.586l-.707-.707a.996.996 0 0 0-.26-.188l-1.702-.85-.819-1.639-.214-.642 1.84.92A1 1 0 0 0 11 15h2a1 1 0 0 0 .707-.293l1-1a1 1 0 0 0 .188-1.154l-.678-1.356.197-.197H16a1 1 0 0 0 .895-.553L17.618 9h2.08l2.526 1.685.56 1.118-.491.49A1 1 0 0 0 22 13v1a1 1 0 0 0 .445.832l2.365 1.576z" fill="#FFFFFF" opacity="1" data-original="#000000" class=""></path><path d="M16 2C8.28 2 2 8.28 2 16s6.28 14 14 14 14-6.28 14-14S23.72 2 16 2zm0 26C9.383 28 4 22.617 4 16S9.383 4 16 4s12 5.383 12 12-5.383 12-12 12z" fill="#FFFFFF" opacity="1" data-original="#000000" class=""></path></g></svg>