<svg xmlns="http://www.w3.org/2000/svg" version="1.1" xmlns:xlink="http://www.w3.org/1999/xlink" width="512" height="512" x="0" y="0" viewBox="0 0 512 512" style="enable-background:new 0 0 512 512" xml:space="preserve"><g><path fill="#FFFFFF" d="M418.919 512c-3.069 0-6.16-.307-9.229-.932-8.252-1.694-15.753-5.49-21.913-11.036L256 410.15l-131.799 89.882a46.602 46.602 0 0 1-21.823 11.025c-9.115 1.841-18.367.966-26.937-2.512-8.684-3.58-15.935-9.502-21.05-17.174-5.069-7.479-7.842-16.424-7.888-25.71V69.832c0-18.651 7.274-36.189 20.459-49.373C80.147 7.263 97.696 0 116.336 0h279.329c18.367 0 36.348 7.456 49.351 20.459 13.025 13.014 20.481 31.006 20.481 49.373v395.715c-.091 9.479-2.864 18.39-8.024 25.982-5.001 7.513-12.252 13.435-20.845 16.981-5.707 2.319-11.708 3.49-17.709 3.49zM116.336 46.555c-6.115 0-12.116 2.489-16.458 6.82-4.342 4.342-6.82 10.332-6.82 16.458v395.715c1.023-1.034 2.205-2.114 3.41-2.944l146.416-99.861c7.956-5.387 18.367-5.365 26.233 0l146.393 99.861a23.395 23.395 0 0 1 3.364 2.796l.068-395.568c0-6.103-2.5-12.105-6.842-16.458-4.342-4.33-10.32-6.82-16.435-6.82H116.336z" opacity="1" data-original="#191919"></path></g></svg>