<?xml version="1.0" encoding="UTF-8"?>
<svg xmlns="http://www.w3.org/2000/svg" version="1.1" viewBox="0 0 512 512">
  <defs>
    <style>
      .cls-1 {
        fill: #fff;
        fill-rule: evenodd;
      }
    </style>
  </defs>
  <!-- Generator: Adobe Illustrator 28.7.1, SVG Export Plug-In . SVG Version: 1.2.0 Build 142)  -->
  <g>
    <g id="_Слой_1" data-name="Слой_1">
      <path class="cls-1" d="M192,85.3h-106.7v91.7c0,8.3,6.7,15,15,15h91.7v-106.7ZM85.3,42.7c-23.6,0-42.7,19.1-42.7,42.7v106.7c0,23.6,19.1,42.7,42.7,42.7h106.7c23.6,0,42.7-19.1,42.7-42.7v-106.7c0-23.6-19.1-42.7-42.7-42.7h-106.7ZM192,320h-106.7v106.7h106.7v-106.7ZM85.3,277.3c-23.6,0-42.7,19.1-42.7,42.7v106.7c0,23.6,19.1,42.7,42.7,42.7h106.7c23.6,0,42.7-19.1,42.7-42.7v-106.7c0-23.6-19.1-42.7-42.7-42.7h-106.7ZM426.7,85.3h-106.7v106.7h106.7v-106.7ZM320,42.7c-23.6,0-42.7,19.1-42.7,42.7v106.7c0,23.6,19.1,42.7,42.7,42.7h106.7c23.6,0,42.7-19.1,42.7-42.7v-106.7c0-23.6-19.1-42.7-42.7-42.7h-106.7ZM426.7,320h-106.7v106.7h106.7v-106.7ZM320,277.3c-23.6,0-42.7,19.1-42.7,42.7v106.7c0,23.6,19.1,42.7,42.7,42.7h106.7c23.6,0,42.7-19.1,42.7-42.7v-106.7c0-23.6-19.1-42.7-42.7-42.7h-106.7Z"/>
    </g>
  </g>
</svg>