<svg xmlns="http://www.w3.org/2000/svg" version="1.1" xmlns:xlink="http://www.w3.org/1999/xlink" width="512" height="512" x="0" y="0" viewBox="0 0 512 512" style="enable-background:new 0 0 512 512" xml:space="preserve" class=""><g><path d="M448 149.333v213.334a106.792 106.792 0 0 1-106.667 106.666H256a21.333 21.333 0 1 1 0-42.666h85.333a64.07 64.07 0 0 0 64-64V149.333a64.07 64.07 0 0 0-64-64H256a21.333 21.333 0 0 1 0-42.666h85.333A106.792 106.792 0 0 1 448 149.333zM318.354 264.151a21.4 21.4 0 0 0-4.622-23.253l-85.315-85.315a21.331 21.331 0 0 0-30.167 30.167l48.917 48.917H85.333a21.333 21.333 0 1 0 0 42.666h161.834L198.25 326.25a21.331 21.331 0 1 0 30.167 30.167l85.315-85.317a21.291 21.291 0 0 0 4.622-6.949z" data-name="log-in-Bold" fill="#FFFFFF" opacity="1" data-original="#000000" class=""></path></g></svg>