<?xml version="1.0" encoding="UTF-8"?> <svg xmlns="http://www.w3.org/2000/svg" width="169" height="24" viewBox="0 0 169 24" fill="none"><path d="M2.43902 6.08131V4.91058C2.43902 1.04066 3.60976 9.3837e-06 7.6748 9.3837e-06H73.3929C77.3387 0.0749688 78.5871 1.73033 79.9804 6.08131H76.2406C75.6001 3.61671 75.0905 2.59805 73.3929 2.6992H7.90244C6.17886 2.6992 5.82114 3.05692 5.82114 4.87806V6.08131H9.20325V8.65041H5.82114V23.5772H2.43902V8.65041H0V6.08131H2.43902Z" fill="white"></path><path d="M22.971 23.5772V21.1057C21.9629 22.8943 20.2718 24 17.6377 24C13.5076 24 11.9141 21.4634 11.9141 17.2033V6.08131H15.2962V16.2927C15.2962 18.7968 15.719 21.1382 18.7759 21.1382C21.6377 21.1382 23.0036 19.0569 23.0036 15.5772V6.08131H26.3857V23.5772H22.971Z" fill="white"></path><path d="M40.0173 6.04879V9.56098C39.3994 9.49594 38.814 9.46342 38.2612 9.46342C35.6595 9.46342 34.2937 10.7317 34.2937 14.4065V23.5772H30.9116V6.08131H34.2286V9.17074C35.1392 7.187 36.8628 6.04879 39.0742 6.01627C39.3669 6.01627 39.7246 6.01627 40.0173 6.04879Z" fill="white"></path><path d="M55.8359 10.9594H52.4863C51.9985 9.13822 50.5025 8.45529 48.5188 8.45529C46.8603 8.45529 45.0716 9.13822 45.0716 10.5691C45.0716 11.8699 45.9172 12.3903 47.5107 12.748L50.0147 13.2358C53.2993 13.9187 56.2261 14.9919 56.2261 18.439C56.2261 21.9837 52.909 24 48.8765 24C44.4212 24 41.7546 21.4309 41.3318 18.1463H44.779C45.2668 20.1301 46.5025 21.3008 48.9741 21.3008C51.1855 21.3008 52.844 20.3902 52.844 18.8293C52.844 17.2358 51.3155 16.5529 49.4944 16.1951L46.8603 15.6748C44.2261 15.1545 41.7546 14.0163 41.7546 10.6992C41.7546 7.60976 45.0391 5.72359 48.844 5.72359C52.3887 5.72359 55.1529 7.57724 55.8359 10.9594Z" fill="white"></path><path d="M62.0274 14.8943C62.0274 19.187 64.4014 21.1382 66.938 21.1382C69.5396 21.1382 71.8811 19.1545 71.8811 14.8943C71.8811 10.5691 69.5396 8.6179 66.938 8.6179C64.4014 8.6179 62.0274 10.4716 62.0274 14.8943ZM66.938 5.75611C71.1006 5.75611 75.4583 8.55285 75.4583 14.8943C75.4583 21.2033 71.1006 24 66.938 24C62.8079 24 58.4502 21.2033 58.4502 14.8943C58.4502 8.55285 62.8079 5.75611 66.938 5.75611Z" fill="white"></path><path d="M79.9804 6.08131L84.4032 19.0569L88.7934 6.08131H92.3056L85.8341 23.5772H82.7446L76.2406 6.08131H79.9804Z" fill="white"></path><path d="M107.792 10.9594H104.443C103.955 9.13822 102.459 8.45529 100.475 8.45529C98.8165 8.45529 97.0279 9.13822 97.0279 10.5691C97.0279 11.8699 97.8735 12.3903 99.4669 12.748L101.971 13.2358C105.256 13.9187 108.182 14.9919 108.182 18.439C108.182 21.9837 104.865 24 100.833 24C96.3775 24 93.7109 21.4309 93.2881 18.1463H96.7352C97.223 20.1301 98.4588 21.3008 100.93 21.3008C103.142 21.3008 104.8 20.3902 104.8 18.8293C104.8 17.2358 103.272 16.5529 101.451 16.1951L98.8166 15.6748C96.1824 15.1545 93.7109 14.0163 93.7109 10.6992C93.7109 7.60976 96.9954 5.72359 100.8 5.72359C104.345 5.72359 107.109 7.57724 107.792 10.9594Z" fill="white"></path><path d="M112.26 6.08131V1.5935H115.642V6.08131H119.089V8.65041H115.642V18.6342C115.642 20.4228 115.935 20.8781 117.626 20.8781H119.057V23.5772H116.585C113.041 23.5772 112.26 22.6992 112.26 19.0894V8.65041H109.593V6.08131H112.26Z" fill="white"></path><path d="M124.623 14.8943C124.623 19.187 126.997 21.1382 129.533 21.1382C132.135 21.1382 134.476 19.1545 134.476 14.8943C134.476 10.5691 132.135 8.6179 129.533 8.6179C126.997 8.6179 124.623 10.4716 124.623 14.8943ZM129.533 5.75611C133.696 5.75611 138.054 8.55285 138.054 14.8943C138.054 21.2033 133.696 24 129.533 24C125.403 24 121.045 21.2033 121.045 14.8943C121.045 8.55285 125.403 5.75611 129.533 5.75611Z" fill="white"></path><path d="M150.536 6.04879V9.56098C149.918 9.49594 149.332 9.46342 148.779 9.46342C146.178 9.46342 144.812 10.7317 144.812 14.4065V23.5772H141.43V6.08131H144.747V9.17074C145.657 7.187 147.381 6.04879 149.592 6.01627C149.885 6.01627 150.243 6.01627 150.536 6.04879Z" fill="white"></path><path d="M160.277 21.1057C162.748 21.1057 164.114 20.0976 164.862 18.439H168.277C167.496 21.3333 164.829 24 160.407 24C154.781 24 151.691 19.8699 151.691 14.7968C151.691 9.36586 155.334 5.75611 160.309 5.75611C165.708 5.75611 168.862 10.1789 168.504 15.8699H155.171C155.529 19.122 157.512 21.1057 160.277 21.1057ZM160.277 8.52033C157.643 8.52033 155.724 9.85367 155.236 13.2033H164.992C164.895 10.6342 163.041 8.52033 160.277 8.52033Z" fill="white"></path></svg> 